<svg width="1440" height="519" viewBox="0 0 1440 519" fill="none" xmlns="http://www.w3.org/2000/svg">
<path fill-rule="evenodd" clip-rule="evenodd" d="M-85 518.72V0H159.4C208.247 0 249.785 8.00784 279.176 28.4158C308.779 48.9712 325.6 81.7763 325.6 130.16C325.6 155.841 319.172 177.854 306.993 196.166C296.044 212.629 280.539 225.964 261.162 236.285C289.518 245.965 311.207 261.961 326.072 283.046C342.137 305.835 350.08 334.352 350.08 366.8C350.08 420.135 327.507 458.269 293.068 482.968C258.753 507.578 212.86 518.72 166.2 518.72H-85ZM257.434 238.21C256.052 237.765 254.654 237.335 253.24 236.92C254.569 236.286 255.881 235.639 257.175 234.98C298.93 213.7 322.6 178.967 322.6 130.16C322.6 34.96 256.64 3 159.4 3H-82V515.72H166.2C258.68 515.72 347.08 471.52 347.08 366.8C347.08 304.325 317.198 257.44 257.434 238.21ZM153.28 290.24H33.88V425H151.24C173.116 425 193.141 421.448 207.624 411.738C221.887 402.176 231.2 386.355 231.2 360.68C231.2 335.156 223.274 317.741 209.926 306.631C196.478 295.438 177.048 290.24 153.28 290.24ZM136.28 93.72H33.88V207.4H144.44C164.122 207.4 180.7 203.055 192.301 193.854C203.785 184.747 210.8 170.554 210.8 149.88C210.8 126.315 201.89 112.569 188.535 104.508C174.895 96.2759 156.203 93.72 136.28 93.72ZM437.617 518.72V0H601.208L719.704 349.429L831.467 0H995.777V518.72H884.377V164.595L762.357 518.72H671.048L549.017 169.777V518.72H437.617ZM546.017 156H547.377L673.177 515.72H760.217L885.337 152.6H887.377V515.72H992.777V3H833.657L720.777 355.92H718.737L599.057 3H440.617V515.72H546.017V156ZM1738.01 0L1599.05 518.72H1482.2L1396.85 176.653L1313.5 518.72H1194.6L1057.01 0H1176.17L1255.49 341.958L1342.81 0H1452.89L1538.9 346.703L1621.58 0H1738.01ZM1539.62 356.6H1538.26L1450.54 3H1345.14L1256.06 351.84H1254.7L1173.78 3H1060.9L1196.9 515.72H1311.14L1396.14 166.88H1397.5L1484.54 515.72H1596.74L1734.1 3H1623.94L1539.62 356.6ZM30.88 287.24V428H151.24C195.44 428 234.2 413.72 234.2 360.68C234.2 308.32 201.56 287.24 153.28 287.24H30.88ZM30.88 90.72V210.4H144.44C184.56 210.4 213.8 192.72 213.8 149.88C213.8 100.92 176.4 90.72 136.28 90.72H30.88Z" fill="url(#paint0_linear_6_5)"/>
<defs>
<linearGradient id="paint0_linear_6_5" x1="798.8" y1="-184.28" x2="798.8" y2="553.22" gradientUnits="userSpaceOnUse">
<stop stop-color="white"/>
<stop offset="0.375" stop-color="white" stop-opacity="0.206522"/>
<stop offset="0.958333" stop-color="white" stop-opacity="0"/>
</linearGradient>
</defs>
</svg>
